<?xml version="1.0" encoding="UTF-8"?>
<svg class="" width="512" height="512" enable-background="new 0 0 512 512" version="1.1" viewBox="0 0 682.67 682.67" xml:space="preserve" xmlns="http://www.w3.org/2000/svg"><defs><clipPath id="clipPath18"><path class="" d="m0 0.00204h682.66v682.66h-682.66z" stroke-width="25.333px" data-original="#000000"/></clipPath><clipPath id="clipPath19"><path class="" d="m0 0.00204h682.66v682.66h-682.66z" stroke-width="25.333px" data-original="#000000"/></clipPath><clipPath id="clipPath20"><path class="" d="m0 0.00204h682.66v682.66h-682.66z" stroke-width="25.333px" data-original="#000000"/></clipPath><clipPath id="clipPath21"><path class="" d="m0 0.00204h682.66v682.66h-682.66z" stroke-width="25.333px" data-original="#000000"/></clipPath><clipPath id="clipPath22"><path class="" d="m0 0.00204h682.66v682.66h-682.66z" stroke-width="25.333px" data-original="#000000"/></clipPath><clipPath id="clipPath23"><path class="" d="m0 0.00204h682.66v682.66h-682.66z" stroke-width="25.333px" data-original="#000000"/></clipPath><clipPath id="clipPath24"><path class="" d="m0 0.00204h682.66v682.66h-682.66z" stroke-width="25.333px" data-original="#000000"/></clipPath><clipPath id="clipPath25"><path class="" d="m0 0.00204h682.66v682.66h-682.66z" stroke-width="25.333px" data-original="#000000"/></clipPath><clipPath id="clipPath26"><path class="" d="m0 0.00204h682.66v682.66h-682.66z" stroke-width="25.333px" data-original="#000000"/></clipPath><clipPath id="clipPath27"><path class="" d="m0 0.00204h682.66v682.66h-682.66z" stroke-width="25.333px" data-original="#000000"/></clipPath><clipPath id="clipPath27-1"><path class="" d="m0 0.00204h682.66v682.66h-682.66z" stroke-width="25.333px" data-original="#000000"/></clipPath><clipPath id="clipPath27-1-3"><path class="" d="m0 0.00204h682.66v682.66h-682.66z" stroke-width="25.333px" data-original="#000000"/></clipPath><clipPath id="clipPath27-6"><path class="" d="m0 0.00204h682.66v682.66h-682.66z" stroke-width="25.333px" data-original="#000000"/></clipPath></defs><g stroke="#000"><path class="" d="m394.67 608h66.666c95.729 0 173.33-77.604 173.33-173.33 0-61.669-32.303-115.67-80.81-146.4-8.2493-89.604-100.13-160.27-212.52-160.27s-204.27 70.664-212.52 160.27c-48.508 30.724-80.81 84.729-80.81 146.4 0 95.729 77.604 173.33 173.33 173.33h66.666" clip-path="url(#clipPath26)" fill="#f79329" stroke-linecap="round" stroke-linejoin="round" stroke-miterlimit="10" stroke-width="25.333px" data-original="#000000"/><g fill="none" stroke-linecap="round" stroke-linejoin="round" stroke-miterlimit="10"><path class="" transform="matrix(1.3333 0 0 -1.3333 428 266.67)" d="m0 0v-20" stroke-width="19px" data-original="#000000"/><path class="" transform="matrix(1.3333 0 0 -1.3333 254.67 293.33)" d="m0 0v20" stroke-width="19px" data-original="#000000"/><g stroke-width="25.333px"><path class="" d="m528 408 133.33-53.333" clip-path="url(#clipPath25)" data-original="#000000"/><path class="" d="m528 488 133.33 53.333" clip-path="url(#clipPath24)" data-original="#000000"/><path class="" d="m154.67 408-133.33-53.333" clip-path="url(#clipPath23)" data-original="#000000"/><path class="" d="m154.67 488-133.33 53.333" clip-path="url(#clipPath22)" data-original="#000000"/></g></g><path class="" d="m381.33 394.67c0 22.091-17.909 40-40 40s-40-17.909-40-40 17.909-40 40-40 40 17.909 40 40z" clip-path="url(#clipPath21)" stroke-linecap="round" stroke-linejoin="round" stroke-miterlimit="10" stroke-width="25.333px" data-original="#000000"/><path class="" d="m341.33 474.67v-40" clip-path="url(#clipPath20)" fill="none" stroke-linecap="round" stroke-linejoin="round" stroke-miterlimit="10" stroke-width="25.333px" data-original="#000000"/><path d="m277.26 534.31s3.8359 41.016 8.1049 58.646c2.1655 9.0818 4.9496 20.241 12.065 25.939 4.1453 3.4428 8.9711 4.5706 13.921 4.8674 9.961 0.47495 19.613 2.8491 24.81-9.7348 1.423-3.3834 1.5404-33.988 5.3763-30.664 3.5266 3.146 4.7085 33.572 8.7918 36.599 12.621 9.1411 32.605 6.1733 39.535-10.566 4.9296-19.779 9.8061-70.536 9.8061-70.536-1.4396-13.73-29.57-19.245-62.148-28.473z" fill="#fff" stroke-width="13.333"/><path class="" d="m448 474.67c0 29.455-23.877 53.333-53.333 53.333s-53.333-23.879-53.333-53.333" clip-path="url(#clipPath19)" fill="none" stroke-linecap="round" stroke-linejoin="round" stroke-miterlimit="10" stroke-width="25.333px" data-original="#000000"/><path class="" d="m341.33 474.67c0 29.455-23.877 53.333-53.333 53.333s-53.333-23.879-53.333-53.333" clip-path="url(#clipPath18)" fill="none" stroke-linecap="round" stroke-linejoin="round" stroke-miterlimit="10" stroke-width="25.333px" data-original="#000000"/><g stroke-linecap="round" stroke-miterlimit="10"><g stroke-linejoin="round" stroke-width="25.333px"><path class="" transform="matrix(-.88825 0 0 .88825 648.97 35.404)" d="m257.17 142.03c-11.867-53.788-59.816-94.032-117.17-94.032-66.273 0-120 53.727-120 120 0 62.529 47.828 113.88 108.9 119.48" clip-path="url(#clipPath27-6)" fill="#f79329" data-original="#000000"/><path class="" transform="matrix(-.31818 0 0 .36209 568.27 133.18)" d="m257.17 142.03c-11.867-53.788-59.816-94.032-117.17-94.032-66.273 0-120 53.727-120 120 0 62.529 47.828 113.88 108.9 119.48" clip-path="url(#clipPath27-1-3)" data-original="#000000"/><path class="" transform="matrix(.88825 0 0 .88825 30.154 33.541)" d="m257.17 142.03c-11.867-53.788-59.816-94.032-117.17-94.032-66.273 0-120 53.727-120 120 0 62.529 47.828 113.88 108.9 119.48" clip-path="url(#clipPath27)" fill="#f79329" data-original="#000000"/></g><path class="" transform="matrix(.31818 0 0 .36209 110.86 131.32)" d="m257.17 142.03c-11.867-53.788-59.816-94.032-117.17-94.032-66.273 0-120 53.727-120 120 0 62.529 47.828 113.88 108.9 119.48" clip-path="url(#clipPath27-1)" stroke-linejoin="bevel" stroke-width="25.333" data-original="#000000"/></g></g><g transform="matrix(2.8664 0 0 4.0722 155.8 -24.5)"><path d="m40.05 74.39c-0.01 5.14-3.29 9.28-7.27 9.27-4-0.04-7.24-4.21-7.22-9.38 0.04-5.13 3.3-9.29 7.3-9.26 3.98 0.02 7.22 4.23 7.19 9.37z"/><path d="m87.96 74.39c0.01 5.14 3.28 9.28 7.27 9.27 4-0.04 7.24-4.21 7.22-9.38-0.04-5.13-3.31-9.29-7.3-9.26-3.99 0.02-7.22 4.23-7.19 9.37z"/></g></svg>
