<svg xmlns="http://www.w3.org/2000/svg" version="1.1" xmlns:xlink="http://www.w3.org/1999/xlink" xmlns:svgjs="http://svgjs.com/svgjs" width="512" height="512" x="0" y="0" viewBox="0 0 682.667 682.667" style="enable-background:new 0 0 512 512" xml:space="preserve" class=""><g><defs style="stroke-width: 19px;" stroke-width="19"><clipPath id="a" clipPathUnits="userSpaceOnUse" style="stroke-width: 19px;" stroke-width="19"><path d="M0 512h512V0H0Z" fill="#000000" data-original="#000000" style="stroke-width: 19px;" stroke-width="19" class="" opacity="1"></path></clipPath></defs><path d="M0 0v-20" style="stroke-width: 19px; stroke-linecap: round; stroke-linejoin: round; stroke-miterlimit: 10; stroke-dasharray: none; stroke-opacity: 1;" transform="matrix(1.33333 0 0 -1.33333 428 266.667)" fill="none" stroke="#000000" stroke-width="19" stroke-linecap="round" stroke-linejoin="round" stroke-miterlimit="10" stroke-dasharray="none" stroke-opacity="" data-original="#000000" opacity="1" class=""></path><path d="M0 0v20" style="stroke-width: 19px; stroke-linecap: round; stroke-linejoin: round; stroke-miterlimit: 10; stroke-dasharray: none; stroke-opacity: 1;" transform="matrix(1.33333 0 0 -1.33333 254.667 293.333)" fill="none" stroke="#000000" stroke-width="19" stroke-linecap="round" stroke-linejoin="round" stroke-miterlimit="10" stroke-dasharray="none" stroke-opacity="" data-original="#000000" opacity="1" class=""></path><g clip-path="url(#a)" transform="matrix(1.33333 0 0 -1.33333 0 682.667)" style="stroke-width: 19px;" stroke-width="19"><path d="M0 0c45.801 4.204 81.672 42.716 81.672 89.613 0 49.705-40.295 90-90 90-43.018 0-78.98-30.183-87.88-70.524" style="stroke-width: 19px; stroke-linecap: round; stroke-linejoin: round; stroke-miterlimit: 10; stroke-dasharray: none; stroke-opacity: 1;" transform="translate(415.328 296.387)" fill="none" stroke="#000000" stroke-width="19" stroke-linecap="round" stroke-linejoin="round" stroke-miterlimit="10" stroke-dasharray="none" stroke-opacity="" data-original="#000000" opacity="1" class=""></path><path d="M0 0c-8.9 40.341-44.862 70.524-87.88 70.524-49.705 0-90-40.295-90-90 0-46.897 35.871-85.409 81.672-89.613" style="stroke-width: 19px; stroke-linecap: round; stroke-linejoin: round; stroke-miterlimit: 10; stroke-dasharray: none; stroke-opacity: 1;" transform="translate(192.88 405.476)" fill="none" stroke="#000000" stroke-width="19" stroke-linecap="round" stroke-linejoin="round" stroke-miterlimit="10" stroke-dasharray="none" stroke-opacity="" data-original="#000000" opacity="1" class=""></path><path d="M0 0h50c71.797 0 130 58.203 130 130 0 46.252-24.227 86.756-60.608 109.799C113.205 307.002 44.294 360-40 360s-153.205-52.998-159.392-120.201C-235.773 216.756-260 176.252-260 130c0-71.797 58.203-130 130-130h50" style="stroke-width: 19px; stroke-linecap: round; stroke-linejoin: round; stroke-miterlimit: 10; stroke-dasharray: none; stroke-opacity: 1;" transform="translate(296 56)" fill="none" stroke="#000000" stroke-width="19" stroke-linecap="round" stroke-linejoin="round" stroke-miterlimit="10" stroke-dasharray="none" stroke-opacity="" data-original="#000000" opacity="1" class=""></path><path d="m0 0 100 40" style="stroke-width: 19px; stroke-linecap: round; stroke-linejoin: round; stroke-miterlimit: 10; stroke-dasharray: none; stroke-opacity: 1;" transform="translate(396 206)" fill="none" stroke="#000000" stroke-width="19" stroke-linecap="round" stroke-linejoin="round" stroke-miterlimit="10" stroke-dasharray="none" stroke-opacity="" data-original="#000000" opacity="1" class=""></path><path d="m0 0 100-40" style="stroke-width: 19px; stroke-linecap: round; stroke-linejoin: round; stroke-miterlimit: 10; stroke-dasharray: none; stroke-opacity: 1;" transform="translate(396 146)" fill="none" stroke="#000000" stroke-width="19" stroke-linecap="round" stroke-linejoin="round" stroke-miterlimit="10" stroke-dasharray="none" stroke-opacity="" data-original="#000000" opacity="1" class=""></path><path d="m0 0-100 40" style="stroke-width: 19px; stroke-linecap: round; stroke-linejoin: round; stroke-miterlimit: 10; stroke-dasharray: none; stroke-opacity: 1;" transform="translate(116 206)" fill="none" stroke="#000000" stroke-width="19" stroke-linecap="round" stroke-linejoin="round" stroke-miterlimit="10" stroke-dasharray="none" stroke-opacity="" data-original="#000000" opacity="1" class=""></path><path d="m0 0-100-40" style="stroke-width: 19px; stroke-linecap: round; stroke-linejoin: round; stroke-miterlimit: 10; stroke-dasharray: none; stroke-opacity: 1;" transform="translate(116 146)" fill="none" stroke="#000000" stroke-width="19" stroke-linecap="round" stroke-linejoin="round" stroke-miterlimit="10" stroke-dasharray="none" stroke-opacity="" data-original="#000000" opacity="1" class=""></path><path d="M0 0c0-16.568-13.432-30-30-30-16.568 0-30 13.432-30 30 0 16.568 13.432 30 30 30C-13.432 30 0 16.568 0 0Z" style="stroke-width: 19px; stroke-linecap: round; stroke-linejoin: round; stroke-miterlimit: 10; stroke-dasharray: none; stroke-opacity: 1;" transform="translate(286 216)" fill="none" stroke="#000000" stroke-width="19" stroke-linecap="round" stroke-linejoin="round" stroke-miterlimit="10" stroke-dasharray="none" stroke-opacity="" data-original="#000000" opacity="1" class=""></path><path d="M0 0v30" style="stroke-width: 19px; stroke-linecap: round; stroke-linejoin: round; stroke-miterlimit: 10; stroke-dasharray: none; stroke-opacity: 1;" transform="translate(256 156)" fill="none" stroke="#000000" stroke-width="19" stroke-linecap="round" stroke-linejoin="round" stroke-miterlimit="10" stroke-dasharray="none" stroke-opacity="" data-original="#000000" opacity="1" class=""></path><path d="M0 0c0-22.091-17.908-40-40-40S-80-22.091-80 0" style="stroke-width: 19px; stroke-linecap: round; stroke-linejoin: round; stroke-miterlimit: 10; stroke-dasharray: none; stroke-opacity: 1;" transform="translate(336 156)" fill="none" stroke="#000000" stroke-width="19" stroke-linecap="round" stroke-linejoin="round" stroke-miterlimit="10" stroke-dasharray="none" stroke-opacity="" data-original="#000000" opacity="1" class=""></path><path d="M0 0c0-22.091-17.908-40-40-40S-80-22.091-80 0" style="stroke-width: 19px; stroke-linecap: round; stroke-linejoin: round; stroke-miterlimit: 10; stroke-dasharray: none; stroke-opacity: 1;" transform="translate(256 156)" fill="none" stroke="#000000" stroke-width="19" stroke-linecap="round" stroke-linejoin="round" stroke-miterlimit="10" stroke-dasharray="none" stroke-opacity="" data-original="#000000" opacity="1" class=""></path><path d="M0 0v-80h80V0" style="stroke-width: 19px; stroke-linecap: round; stroke-linejoin: round; stroke-miterlimit: 10; stroke-dasharray: none; stroke-opacity: 1;" transform="translate(216 116)" fill="none" stroke="#000000" stroke-width="19" stroke-linecap="round" stroke-linejoin="round" stroke-miterlimit="10" stroke-dasharray="none" stroke-opacity="" data-original="#000000" opacity="1" class=""></path></g></g></svg>
